<svg width="1200" height="630" viewBox="0 0 1200 630" fill="none" xmlns="http://www.w3.org/2000/svg">
  <defs>
    <linearGradient id="bg" x1="0" y1="0" x2="1200" y2="630" gradientUnits="userSpaceOnUse">
      <stop offset="0" stop-color="#EAF2FF"/>
      <stop offset="1" stop-color="#F6E8FF"/>
    </linearGradient>
    <linearGradient id="card" x1="0" y1="0" x2="1" y2="1" gradientUnits="objectBoundingBox">
      <stop offset="0" stop-color="#FFFFFF"/>
      <stop offset="1" stop-color="#F8FAFF"/>
    </linearGradient>
  </defs>
  <rect width="1200" height="630" rx="36" fill="url(#bg)"/>
  <rect x="180" y="140" width="840" height="350" rx="28" fill="url(#card)" stroke="#E2E8F0" stroke-width="2"/>
  <rect x="230" y="200" width="420" height="18" rx="9" fill="#CBD5E1"/>
  <rect x="230" y="240" width="360" height="12" rx="6" fill="#E2E8F0"/>
  <rect x="230" y="268" width="280" height="12" rx="6" fill="#E2E8F0"/>
  <rect x="230" y="320" width="220" height="12" rx="6" fill="#E2E8F0"/>
  <rect x="230" y="348" width="180" height="12" rx="6" fill="#E2E8F0"/>
  <circle cx="860" cy="255" r="64" fill="#EEF2FF" stroke="#D4DCFF" stroke-width="2"/>
  <path d="M838 255L854 271L886 239" stroke="#6366F1" stroke-width="12" stroke-linecap="round" stroke-linejoin="round"/>
  <rect x="760" y="330" width="210" height="36" rx="18" fill="#DBEAFE"/>
  <rect x="760" y="380" width="170" height="28" rx="14" fill="#FCE7F3"/>
  <text x="230" y="185" font-family="SF Pro Display, Inter, Arial, sans-serif" font-size="32" font-weight="700" fill="#1F2937">Deoli</text>
  <text x="230" y="414" font-family="SF Pro Text, Inter, Arial, sans-serif" font-size="18" font-weight="500" fill="#64748B">Reminder app for focused days</text>
</svg>
